<?xml version="1.0" standalone="no"?>
<!DOCTYPE svg PUBLIC "-//W3C//DTD SVG 20010904//EN"
 "http://www.w3.org/TR/2001/REC-SVG-20010904/DTD/svg10.dtd">
<svg version="1.0" xmlns="http://www.w3.org/2000/svg"
 width="102.000000pt" height="102.000000pt" viewBox="0 0 102.000000 102.000000"
 preserveAspectRatio="xMidYMid meet">
<metadata>
Created by potrace 1.14, written by Peter Selinger 2001-2017
</metadata>
<g transform="translate(0.000000,102.000000) scale(0.100000,-0.100000)"
fill="#000000" stroke="none">
<path d="M386 1004 c-117 -30 -236 -115 -302 -214 l-26 -39 46 -77 c25 -42 46
-79 46 -83 0 -3 8 -16 18 -29 18 -23 18 -23 144 195 69 120 130 227 136 239
13 25 7 26 -62 8z"/>
<path d="M467 973 c-15 -26 -43 -75 -62 -108 -19 -33 -35 -63 -35 -67 0 -5
126 -8 280 -8 154 0 280 4 280 9 0 20 -123 130 -177 158 -71 38 -119 52 -198
59 l-61 6 -27 -49z"/>
<path d="M722 745 c6 -11 65 -114 131 -229 113 -196 121 -207 133 -185 48 95
41 288 -16 399 l-18 35 -120 0 c-117 0 -120 0 -110 -20z"/>
<path d="M25 669 c-36 -119 -26 -284 25 -379 l18 -35 121 0 c95 0 120 2 116
12 -6 17 -233 411 -251 437 -11 17 -14 13 -29 -35z"/>
<path d="M390 495 l0 -135 30 0 c29 0 30 2 30 45 l0 45 75 0 c84 0 118 12 134
47 18 40 13 73 -18 104 -29 29 -31 29 -140 29 l-111 0 0 -135z m205 81 c21 -8
19 -63 -2 -75 -10 -5 -46 -9 -79 -10 -60 0 -62 0 -65 27 -9 63 -4 68 67 66 36
-1 71 -5 79 -8z"/>
<path d="M696 249 c-76 -132 -136 -242 -134 -244 9 -10 136 28 190 57 65 34
164 127 192 180 l19 34 -63 107 c-34 59 -63 107 -64 107 0 0 -63 -108 -140
-241z"/>
<path d="M90 221 c0 -19 123 -130 177 -158 63 -34 154 -60 218 -62 l40 -1 60
107 c33 59 62 111 63 115 2 4 -123 8 -277 8 -155 0 -281 -4 -281 -9z"/>
</g>
</svg>
