<svg width="59" height="44" viewBox="0 0 59 44" fill="none" xmlns="http://www.w3.org/2000/svg">
<path d="M58.5487 6.92542V6.83403V6.79249C58.5418 6.73647 58.5313 6.68097 58.5171 6.62633C58.5171 6.61304 58.5171 6.59975 58.5055 6.58479C58.4939 6.56984 58.4889 6.53827 58.4789 6.51335C58.4689 6.48843 58.464 6.47513 58.4557 6.45686C58.4473 6.43858 58.4357 6.41199 58.4241 6.39039C58.4124 6.36879 58.3992 6.34719 58.3859 6.32725C58.3774 6.31063 58.368 6.29454 58.3576 6.27907L54.423 0.50844C54.3164 0.351909 54.1732 0.223772 54.0059 0.135165C53.8385 0.0465572 53.652 0.000159106 53.4626 0H5.08772C4.89835 0.000159106 4.71187 0.0465572 4.5445 0.135165C4.37713 0.223772 4.23393 0.351909 4.12734 0.50844L0.192743 6.28571C0.166164 6.32649 0.14176 6.36864 0.119633 6.41199C0.114527 6.42108 0.110085 6.43052 0.106342 6.44024C0.0880643 6.47679 0.07311 6.51501 0.0581559 6.55323C0.0561336 6.56123 0.0533511 6.56902 0.0498476 6.57649C0.035145 6.62232 0.022942 6.66891 0.0132929 6.71606C0.0132929 6.71606 0.0132929 6.72935 0.0132929 6.736C0.00622333 6.77554 0.00178244 6.8155 0 6.85563C0 6.87059 0 6.88388 0 6.89883C0 6.91379 0 6.92708 0 6.94037C0 6.95367 0 6.98357 0 7.00517V9.66368C0.00218293 11.1075 0.473213 12.5116 1.34221 13.6647C2.21121 14.8178 3.43118 15.6575 4.81855 16.0574V40.3678C4.81987 41.3307 5.20297 42.2538 5.88385 42.9347C6.56473 43.6156 7.48783 43.9987 8.45074 44H49.6244C50.5873 43.9987 51.5104 43.6156 52.1913 42.9347C52.8722 42.2538 53.2553 41.3307 53.2566 40.3678V16.1804C54.7515 15.8654 56.0929 15.0466 57.0562 13.861C58.0196 12.6753 58.5465 11.1947 58.5487 9.66701V6.92542ZM52.8379 2.33284L55.1907 5.77728H47.152L45.5851 2.33284H52.8379ZM43.0346 2.33284L43.3055 2.92768L44.6015 5.77728H36.3468L35.5642 2.33284H43.0346ZM45.2429 8.10347V9.66701C45.2429 10.8139 44.7873 11.9137 43.9763 12.7247C43.1654 13.5357 42.0655 13.9912 40.9186 13.9912C39.7718 13.9912 38.6719 13.5357 37.8609 12.7247C37.05 11.9137 36.5944 10.8139 36.5944 9.66701V8.10347H45.2429ZM25.3622 2.33284H33.1716L33.9542 5.77728H24.5796L25.3622 2.33284ZM24.2855 8.10347H34.2549V9.01069C34.2549 10.3327 33.7297 11.6006 32.7949 12.5354C31.8601 13.4702 30.5922 13.9954 29.2702 13.9954C27.9482 13.9954 26.6803 13.4702 25.7455 12.5354C24.8107 11.6006 24.2855 10.3327 24.2855 9.01069V8.10347ZM15.5107 2.33284H22.9762L22.1936 5.77728H13.9439L15.5107 2.33284ZM13.3025 8.10347H21.9593V9.66701C21.9593 10.815 21.5033 11.9159 20.6915 12.7276C19.8798 13.5394 18.7789 13.9954 17.6309 13.9954C16.4829 13.9954 15.382 13.5394 14.5703 12.7276C13.7585 11.9159 13.3025 10.815 13.3025 9.66701V8.10347ZM5.70251 2.33284H12.9553L11.6576 5.18243L11.3867 5.77728H3.34972L5.70251 2.33284ZM2.31789 9.66701V8.10347H10.9747V9.66701C10.9747 10.815 10.5186 11.9159 9.70691 12.7276C8.89518 13.5394 7.79423 13.9954 6.64628 13.9954C5.49832 13.9954 4.39737 13.5394 3.58564 12.7276C2.77391 11.9159 2.31789 10.815 2.31789 9.66701ZM50.9304 40.3678C50.93 40.714 50.7922 41.046 50.5474 41.2908C50.3026 41.5356 49.9706 41.6734 49.6244 41.6738H8.43911C8.09287 41.6734 7.76094 41.5356 7.51612 41.2908C7.27129 41.046 7.13355 40.714 7.13311 40.3678V16.3017C8.13044 16.2286 9.09842 15.9314 9.96494 15.4323C10.8315 14.9331 11.5742 14.2449 12.1378 13.4188C12.7608 14.3322 13.602 15.0757 14.5849 15.582C15.5679 16.0883 16.6616 16.3413 17.767 16.3182C18.8725 16.2951 19.9547 15.9966 20.9156 15.4497C21.8766 14.9028 22.6859 14.1248 23.2703 13.1862C23.9424 14.1545 24.839 14.9456 25.8834 15.4919C26.9278 16.0383 28.089 16.3237 29.2677 16.3237C30.4464 16.3237 31.6076 16.0383 32.652 15.4919C33.6964 14.9456 34.593 14.1545 35.2651 13.1862C35.8491 14.1251 36.6581 14.9035 37.6188 15.4508C38.5795 15.9982 39.6616 16.2972 40.767 16.3208C41.8725 16.3444 42.9663 16.0918 43.9495 15.5859C44.9327 15.0801 45.7742 14.3369 46.3976 13.4238C46.9162 14.1831 47.5864 14.8267 48.3659 15.3143C49.1454 15.8018 50.0175 16.1227 50.9271 16.2568L50.9304 40.3678ZM56.2225 9.66701C56.219 10.8117 55.7627 11.9085 54.9533 12.7179C54.1439 13.5273 53.0471 13.9836 51.9024 13.9871C50.7577 13.9836 49.661 13.5273 48.8515 12.7179C48.0421 11.9085 47.5858 10.8117 47.5823 9.66701V8.10347H56.2408L56.2225 9.66701Z" fill="#005D63"/>
<path d="M9.2998 20.4209V31.9306C9.2998 32.2391 9.42235 32.5349 9.64047 32.753C9.85859 32.9712 10.1544 33.0937 10.4629 33.0937H48.0775C48.386 33.0937 48.6818 32.9712 48.8999 32.753C49.1181 32.5349 49.2406 32.2391 49.2406 31.9306V20.4209C49.2406 20.1124 49.1181 19.8166 48.8999 19.5985C48.6818 19.3803 48.386 19.2578 48.0775 19.2578H10.4629C10.1544 19.2578 9.85859 19.3803 9.64047 19.5985C9.42235 19.8166 9.2998 20.1124 9.2998 20.4209ZM11.626 21.584H46.9144V30.7675H11.626V21.584Z" fill="#005D63"/>
</svg>
